<mxfile host="app.diagrams.net" modified="2020-10-17T19:41:20.093Z" agent="5.0 (X11; Linux x86_64) AppleWebKit/537.36 (KHTML, like Gecko) Chrome/85.0.4183.121 Safari/537.36" etag="lOcy6MWwASC7YTTFPA7p" version="13.8.0" type="github">
  <diagram id="6xcXNCe8cQLP_P8vVS-I" name="Page-1">
    <mxGraphModel dx="1422" dy="1975" grid="1" gridSize="10" guides="1" tooltips="1" connect="1" arrows="1" fold="1" page="1" pageScale="1" pageWidth="827" pageHeight="1169" background="#283618" math="0" shadow="0">
      <root>
        <mxCell id="0" />
        <mxCell id="1" parent="0" />
        <mxCell id="u4cj8cOvkzB2vAJ4iloq-2" value="Start" style="rounded=1;whiteSpace=wrap;html=1;fillColor=#BC6C25;strokeColor=#DDA15E;fontColor=#FEFAE0;" parent="1" vertex="1">
          <mxGeometry x="360" y="-440" width="120" height="40" as="geometry" />
        </mxCell>
        <mxCell id="u4cj8cOvkzB2vAJ4iloq-9" value="" style="endArrow=classic;html=1;strokeColor=#DDA15E;fillColor=#BC6C25;fontColor=#FEFAE0;entryX=0.5;entryY=0;entryDx=0;entryDy=0;" parent="1" source="u4cj8cOvkzB2vAJ4iloq-2" target="u4cj8cOvkzB2vAJ4iloq-10" edge="1">
          <mxGeometry width="50" height="50" relative="1" as="geometry">
            <mxPoint x="380" y="-300" as="sourcePoint" />
            <mxPoint x="414" y="-320" as="targetPoint" />
          </mxGeometry>
        </mxCell>
        <mxCell id="u4cj8cOvkzB2vAJ4iloq-12" value="" style="edgeStyle=orthogonalEdgeStyle;curved=0;rounded=1;sketch=0;orthogonalLoop=1;jettySize=auto;html=1;strokeColor=#DDA15E;fillColor=#BC6C25;fontColor=#FEFAE0;" parent="1" source="u4cj8cOvkzB2vAJ4iloq-10" target="u4cj8cOvkzB2vAJ4iloq-11" edge="1">
          <mxGeometry relative="1" as="geometry" />
        </mxCell>
        <mxCell id="u4cj8cOvkzB2vAJ4iloq-10" value="Recieve&lt;br&gt;" style="rounded=0;whiteSpace=wrap;html=1;sketch=0;strokeColor=#DDA15E;fillColor=#BC6C25;fontColor=#FEFAE0;" parent="1" vertex="1">
          <mxGeometry x="360" y="-360" width="120" height="40" as="geometry" />
        </mxCell>
        <mxCell id="u4cj8cOvkzB2vAJ4iloq-17" value="" style="edgeStyle=orthogonalEdgeStyle;curved=0;rounded=1;sketch=0;orthogonalLoop=1;jettySize=auto;html=1;strokeColor=#DDA15E;fillColor=#BC6C25;fontColor=#FEFAE0;" parent="1" source="u4cj8cOvkzB2vAJ4iloq-11" target="u4cj8cOvkzB2vAJ4iloq-16" edge="1">
          <mxGeometry relative="1" as="geometry" />
        </mxCell>
        <mxCell id="u4cj8cOvkzB2vAJ4iloq-11" value="ParseMethod" style="rounded=0;whiteSpace=wrap;html=1;sketch=0;strokeColor=#DDA15E;fillColor=#BC6C25;fontColor=#FEFAE0;" parent="1" vertex="1">
          <mxGeometry x="360" y="-280" width="120" height="40" as="geometry" />
        </mxCell>
        <mxCell id="u4cj8cOvkzB2vAJ4iloq-13" style="edgeStyle=orthogonalEdgeStyle;curved=0;rounded=1;sketch=0;orthogonalLoop=1;jettySize=auto;html=1;exitX=0.5;exitY=1;exitDx=0;exitDy=0;strokeColor=#DDA15E;fillColor=#BC6C25;fontColor=#FEFAE0;" parent="1" source="u4cj8cOvkzB2vAJ4iloq-10" target="u4cj8cOvkzB2vAJ4iloq-10" edge="1">
          <mxGeometry relative="1" as="geometry" />
        </mxCell>
        <mxCell id="u4cj8cOvkzB2vAJ4iloq-21" value="" style="edgeStyle=orthogonalEdgeStyle;curved=0;rounded=1;sketch=0;orthogonalLoop=1;jettySize=auto;html=1;strokeColor=#DDA15E;fillColor=#BC6C25;fontColor=#FEFAE0;" parent="1" source="u4cj8cOvkzB2vAJ4iloq-16" target="u4cj8cOvkzB2vAJ4iloq-20" edge="1">
          <mxGeometry relative="1" as="geometry" />
        </mxCell>
        <mxCell id="u4cj8cOvkzB2vAJ4iloq-22" style="edgeStyle=orthogonalEdgeStyle;curved=0;rounded=1;sketch=0;orthogonalLoop=1;jettySize=auto;html=1;strokeColor=#DDA15E;fillColor=#BC6C25;fontColor=#FEFAE0;entryX=0.5;entryY=0;entryDx=0;entryDy=0;" parent="1" source="u4cj8cOvkzB2vAJ4iloq-16" target="u4cj8cOvkzB2vAJ4iloq-18" edge="1">
          <mxGeometry relative="1" as="geometry">
            <mxPoint x="100" y="-180" as="targetPoint" />
          </mxGeometry>
        </mxCell>
        <mxCell id="u4cj8cOvkzB2vAJ4iloq-67" style="edgeStyle=orthogonalEdgeStyle;curved=0;rounded=1;sketch=0;orthogonalLoop=1;jettySize=auto;html=1;strokeColor=#DDA15E;fillColor=#BC6C25;fontColor=#FEFAE0;entryX=0.5;entryY=0;entryDx=0;entryDy=0;" parent="1" source="u4cj8cOvkzB2vAJ4iloq-16" target="u4cj8cOvkzB2vAJ4iloq-66" edge="1">
          <mxGeometry relative="1" as="geometry">
            <mxPoint x="740" y="-180" as="targetPoint" />
          </mxGeometry>
        </mxCell>
        <mxCell id="u4cj8cOvkzB2vAJ4iloq-16" value="method = n&amp;nbsp;" style="rhombus;whiteSpace=wrap;html=1;rounded=0;sketch=0;strokeColor=#DDA15E;fillColor=#BC6C25;fontColor=#FEFAE0;" parent="1" vertex="1">
          <mxGeometry x="360" y="-200" width="120" height="40" as="geometry" />
        </mxCell>
        <mxCell id="u4cj8cOvkzB2vAJ4iloq-25" value="" style="edgeStyle=orthogonalEdgeStyle;curved=0;rounded=1;sketch=0;orthogonalLoop=1;jettySize=auto;html=1;strokeColor=#DDA15E;fillColor=#BC6C25;fontColor=#FEFAE0;exitX=0.5;exitY=1;exitDx=0;exitDy=0;" parent="1" source="u4cj8cOvkzB2vAJ4iloq-18" target="gl4KeMCZ7agIuTPifQWe-14" edge="1">
          <mxGeometry relative="1" as="geometry">
            <mxPoint x="100" y="-10" as="targetPoint" />
          </mxGeometry>
        </mxCell>
        <mxCell id="u4cj8cOvkzB2vAJ4iloq-18" value="n = DELETE" style="rounded=0;whiteSpace=wrap;html=1;sketch=0;strokeColor=#DDA15E;fillColor=#BC6C25;fontColor=#FEFAE0;" parent="1" vertex="1">
          <mxGeometry x="40" y="-120" width="120" height="40" as="geometry" />
        </mxCell>
        <mxCell id="gl4KeMCZ7agIuTPifQWe-17" style="edgeStyle=orthogonalEdgeStyle;rounded=0;orthogonalLoop=1;jettySize=auto;html=1;entryX=0.5;entryY=0;entryDx=0;entryDy=0;fillColor=#ffe6cc;strokeColor=#d79b00;" edge="1" parent="1" source="u4cj8cOvkzB2vAJ4iloq-20" target="gl4KeMCZ7agIuTPifQWe-16">
          <mxGeometry relative="1" as="geometry" />
        </mxCell>
        <mxCell id="u4cj8cOvkzB2vAJ4iloq-20" value="n = PUT" style="rounded=0;whiteSpace=wrap;html=1;sketch=0;strokeColor=#DDA15E;fillColor=#BC6C25;fontColor=#FEFAE0;" parent="1" vertex="1">
          <mxGeometry x="360" y="-120" width="120" height="40" as="geometry" />
        </mxCell>
        <mxCell id="AcBzsa9TtrNExwrVKdTz-4" value="" style="edgeStyle=orthogonalEdgeStyle;rounded=0;orthogonalLoop=1;jettySize=auto;html=1;" parent="1" source="u4cj8cOvkzB2vAJ4iloq-33" edge="1">
          <mxGeometry relative="1" as="geometry">
            <mxPoint x="400" y="20" as="targetPoint" />
          </mxGeometry>
        </mxCell>
        <mxCell id="u4cj8cOvkzB2vAJ4iloq-79" value="" style="edgeStyle=orthogonalEdgeStyle;curved=0;rounded=1;sketch=0;orthogonalLoop=1;jettySize=auto;html=1;strokeColor=#DDA15E;fillColor=#BC6C25;fontColor=#FEFAE0;" parent="1" source="u4cj8cOvkzB2vAJ4iloq-49" target="u4cj8cOvkzB2vAJ4iloq-56" edge="1">
          <mxGeometry relative="1" as="geometry" />
        </mxCell>
        <mxCell id="u4cj8cOvkzB2vAJ4iloq-49" value="DELETE&lt;br&gt;" style="rounded=0;whiteSpace=wrap;html=1;sketch=0;strokeColor=#DDA15E;fillColor=#BC6C25;fontColor=#FEFAE0;" parent="1" vertex="1">
          <mxGeometry x="40" y="120" width="120" height="40" as="geometry" />
        </mxCell>
        <mxCell id="oNktxfxEN7Iew2t3d9rl-12" value="" style="edgeStyle=orthogonalEdgeStyle;rounded=0;orthogonalLoop=1;jettySize=auto;html=1;fillColor=#ffe6cc;strokeColor=#d79b00;" parent="1" source="u4cj8cOvkzB2vAJ4iloq-54" target="u4cj8cOvkzB2vAJ4iloq-84" edge="1">
          <mxGeometry relative="1" as="geometry" />
        </mxCell>
        <mxCell id="u4cj8cOvkzB2vAJ4iloq-54" value="PUT" style="rounded=0;whiteSpace=wrap;html=1;sketch=0;strokeColor=#DDA15E;fillColor=#BC6C25;fontColor=#FEFAE0;" parent="1" vertex="1">
          <mxGeometry x="360" y="120" width="120" height="40" as="geometry" />
        </mxCell>
        <mxCell id="oNktxfxEN7Iew2t3d9rl-8" value="" style="edgeStyle=orthogonalEdgeStyle;rounded=0;orthogonalLoop=1;jettySize=auto;html=1;fillColor=#ffe6cc;strokeColor=#d79b00;" parent="1" source="u4cj8cOvkzB2vAJ4iloq-55" target="u4cj8cOvkzB2vAJ4iloq-82" edge="1">
          <mxGeometry relative="1" as="geometry" />
        </mxCell>
        <mxCell id="u4cj8cOvkzB2vAJ4iloq-55" value="POST" style="rounded=0;whiteSpace=wrap;html=1;sketch=0;strokeColor=#DDA15E;fillColor=#BC6C25;fontColor=#FEFAE0;" parent="1" vertex="1">
          <mxGeometry x="680" y="120" width="120" height="40" as="geometry" />
        </mxCell>
        <mxCell id="u4cj8cOvkzB2vAJ4iloq-80" style="edgeStyle=orthogonalEdgeStyle;curved=0;rounded=1;sketch=0;orthogonalLoop=1;jettySize=auto;html=1;strokeColor=#DDA15E;fillColor=#BC6C25;fontColor=#FEFAE0;exitX=0.5;exitY=1;exitDx=0;exitDy=0;" parent="1" source="u4cj8cOvkzB2vAJ4iloq-56" edge="1">
          <mxGeometry relative="1" as="geometry">
            <mxPoint x="420" y="450" as="targetPoint" />
            <Array as="points">
              <mxPoint x="100" y="360" />
              <mxPoint x="420" y="360" />
            </Array>
          </mxGeometry>
        </mxCell>
        <mxCell id="u4cj8cOvkzB2vAJ4iloq-56" value="id = dataId" style="rounded=0;whiteSpace=wrap;html=1;sketch=0;strokeColor=#DDA15E;fillColor=#BC6C25;fontColor=#FEFAE0;" parent="1" vertex="1">
          <mxGeometry x="40" y="200" width="120" height="40" as="geometry" />
        </mxCell>
        <mxCell id="u4cj8cOvkzB2vAJ4iloq-61" value="dataId&lt;br&gt;dataName" style="shape=parallelogram;perimeter=parallelogramPerimeter;whiteSpace=wrap;html=1;fixedSize=1;rounded=0;sketch=0;strokeColor=#DDA15E;fillColor=#BC6C25;fontColor=#FEFAE0;" parent="1" vertex="1">
          <mxGeometry x="360" y="450" width="120" height="40" as="geometry" />
        </mxCell>
        <mxCell id="u4cj8cOvkzB2vAJ4iloq-68" style="edgeStyle=orthogonalEdgeStyle;curved=0;rounded=1;sketch=0;orthogonalLoop=1;jettySize=auto;html=1;strokeColor=#DDA15E;fillColor=#BC6C25;fontColor=#FEFAE0;exitX=0.5;exitY=1;exitDx=0;exitDy=0;entryX=0.5;entryY=0;entryDx=0;entryDy=0;" parent="1" source="u4cj8cOvkzB2vAJ4iloq-66" target="gl4KeMCZ7agIuTPifQWe-18" edge="1">
          <mxGeometry relative="1" as="geometry">
            <mxPoint x="740" y="-20" as="targetPoint" />
          </mxGeometry>
        </mxCell>
        <mxCell id="u4cj8cOvkzB2vAJ4iloq-66" value="n = POST" style="rounded=0;whiteSpace=wrap;html=1;sketch=0;strokeColor=#DDA15E;fillColor=#BC6C25;fontColor=#FEFAE0;" parent="1" vertex="1">
          <mxGeometry x="680" y="-120" width="120" height="40" as="geometry" />
        </mxCell>
        <mxCell id="u4cj8cOvkzB2vAJ4iloq-70" style="edgeStyle=orthogonalEdgeStyle;curved=0;rounded=1;sketch=0;orthogonalLoop=1;jettySize=auto;html=1;exitX=0.5;exitY=1;exitDx=0;exitDy=0;strokeColor=#DDA15E;fillColor=#BC6C25;fontColor=#FEFAE0;" parent="1" edge="1">
          <mxGeometry relative="1" as="geometry">
            <mxPoint x="420" y="70" as="sourcePoint" />
            <mxPoint x="420" y="70" as="targetPoint" />
          </mxGeometry>
        </mxCell>
        <mxCell id="u4cj8cOvkzB2vAJ4iloq-72" style="edgeStyle=orthogonalEdgeStyle;curved=0;rounded=1;sketch=0;orthogonalLoop=1;jettySize=auto;html=1;exitX=0.5;exitY=1;exitDx=0;exitDy=0;strokeColor=#DDA15E;fillColor=#BC6C25;fontColor=#FEFAE0;" parent="1" edge="1">
          <mxGeometry relative="1" as="geometry">
            <mxPoint x="420" y="70" as="sourcePoint" />
            <mxPoint x="420" y="70" as="targetPoint" />
          </mxGeometry>
        </mxCell>
        <mxCell id="u4cj8cOvkzB2vAJ4iloq-83" style="edgeStyle=orthogonalEdgeStyle;curved=0;rounded=1;sketch=0;orthogonalLoop=1;jettySize=auto;html=1;strokeColor=#DDA15E;fillColor=#BC6C25;fontColor=#FEFAE0;entryX=0.5;entryY=0;entryDx=0;entryDy=0;exitX=0.5;exitY=1;exitDx=0;exitDy=0;" parent="1" source="u4cj8cOvkzB2vAJ4iloq-82" target="u4cj8cOvkzB2vAJ4iloq-61" edge="1">
          <mxGeometry relative="1" as="geometry">
            <mxPoint x="560" y="-90" as="targetPoint" />
            <Array as="points">
              <mxPoint x="740" y="360" />
              <mxPoint x="420" y="360" />
            </Array>
          </mxGeometry>
        </mxCell>
        <mxCell id="u4cj8cOvkzB2vAJ4iloq-82" value="name = dataName" style="rounded=0;whiteSpace=wrap;html=1;sketch=0;strokeColor=#DDA15E;fillColor=#BC6C25;fontColor=#FEFAE0;" parent="1" vertex="1">
          <mxGeometry x="680" y="200" width="120" height="40" as="geometry" />
        </mxCell>
        <mxCell id="u4cj8cOvkzB2vAJ4iloq-85" style="edgeStyle=orthogonalEdgeStyle;curved=0;rounded=1;sketch=0;orthogonalLoop=1;jettySize=auto;html=1;strokeColor=#DDA15E;fillColor=#BC6C25;fontColor=#FEFAE0;exitX=0.5;exitY=1;exitDx=0;exitDy=0;" parent="1" source="u4cj8cOvkzB2vAJ4iloq-84" edge="1">
          <mxGeometry relative="1" as="geometry">
            <mxPoint x="420" y="450" as="targetPoint" />
            <Array as="points">
              <mxPoint x="420" y="380" />
              <mxPoint x="420" y="380" />
            </Array>
          </mxGeometry>
        </mxCell>
        <mxCell id="u4cj8cOvkzB2vAJ4iloq-84" value="id = dataId&lt;br&gt;name = dataName" style="rounded=0;whiteSpace=wrap;html=1;sketch=0;strokeColor=#DDA15E;fillColor=#BC6C25;fontColor=#FEFAE0;" parent="1" vertex="1">
          <mxGeometry x="360" y="200" width="120" height="40" as="geometry" />
        </mxCell>
        <mxCell id="gl4KeMCZ7agIuTPifQWe-3" value="" style="edgeStyle=orthogonalEdgeStyle;curved=0;rounded=1;sketch=0;orthogonalLoop=1;jettySize=auto;html=1;strokeColor=#DDA15E;fillColor=#BC6C25;fontColor=#FEFAE0;" edge="1" parent="1" target="gl4KeMCZ7agIuTPifQWe-6">
          <mxGeometry relative="1" as="geometry">
            <Array as="points">
              <mxPoint x="150" y="630" />
              <mxPoint x="70" y="630" />
            </Array>
            <mxPoint x="150" y="610" as="sourcePoint" />
          </mxGeometry>
        </mxCell>
        <mxCell id="gl4KeMCZ7agIuTPifQWe-4" style="edgeStyle=orthogonalEdgeStyle;curved=0;rounded=1;sketch=0;orthogonalLoop=1;jettySize=auto;html=1;strokeColor=#DDA15E;fillColor=#BC6C25;fontColor=#FEFAE0;" edge="1" parent="1" target="gl4KeMCZ7agIuTPifQWe-10">
          <mxGeometry relative="1" as="geometry">
            <Array as="points">
              <mxPoint x="150" y="630" />
              <mxPoint x="230" y="630" />
            </Array>
            <mxPoint x="150" y="610" as="sourcePoint" />
          </mxGeometry>
        </mxCell>
        <mxCell id="gl4KeMCZ7agIuTPifQWe-5" value="" style="edgeStyle=orthogonalEdgeStyle;curved=0;rounded=1;sketch=0;orthogonalLoop=1;jettySize=auto;html=1;strokeColor=#DDA15E;fillColor=#BC6C25;fontColor=#FEFAE0;" edge="1" parent="1" source="gl4KeMCZ7agIuTPifQWe-6" target="gl4KeMCZ7agIuTPifQWe-8">
          <mxGeometry relative="1" as="geometry" />
        </mxCell>
        <mxCell id="gl4KeMCZ7agIuTPifQWe-6" value="isolated&lt;br&gt;ParametrId" style="rounded=0;whiteSpace=wrap;html=1;sketch=0;strokeColor=#DDA15E;fillColor=#BC6C25;fontColor=#FEFAE0;" vertex="1" parent="1">
          <mxGeometry x="10" y="690" width="120" height="40" as="geometry" />
        </mxCell>
        <mxCell id="gl4KeMCZ7agIuTPifQWe-7" value="" style="edgeStyle=orthogonalEdgeStyle;curved=0;rounded=1;sketch=0;orthogonalLoop=1;jettySize=auto;html=1;strokeColor=#DDA15E;fillColor=#BC6C25;fontColor=#FEFAE0;" edge="1" parent="1" source="gl4KeMCZ7agIuTPifQWe-8">
          <mxGeometry relative="1" as="geometry">
            <mxPoint x="150" y="900" as="targetPoint" />
          </mxGeometry>
        </mxCell>
        <mxCell id="gl4KeMCZ7agIuTPifQWe-8" value="ParseId" style="rounded=0;whiteSpace=wrap;html=1;sketch=0;strokeColor=#DDA15E;fillColor=#BC6C25;fontColor=#FEFAE0;" vertex="1" parent="1">
          <mxGeometry x="10" y="770" width="120" height="40" as="geometry" />
        </mxCell>
        <mxCell id="gl4KeMCZ7agIuTPifQWe-9" value="" style="edgeStyle=orthogonalEdgeStyle;curved=0;rounded=1;sketch=0;orthogonalLoop=1;jettySize=auto;html=1;strokeColor=#DDA15E;fillColor=#BC6C25;fontColor=#FEFAE0;" edge="1" parent="1" source="gl4KeMCZ7agIuTPifQWe-10" target="gl4KeMCZ7agIuTPifQWe-11">
          <mxGeometry relative="1" as="geometry" />
        </mxCell>
        <mxCell id="gl4KeMCZ7agIuTPifQWe-10" value="Isolated&lt;br&gt;ParametrName" style="rounded=0;whiteSpace=wrap;html=1;sketch=0;strokeColor=#DDA15E;fillColor=#BC6C25;fontColor=#FEFAE0;" vertex="1" parent="1">
          <mxGeometry x="170" y="690" width="120" height="40" as="geometry" />
        </mxCell>
        <mxCell id="gl4KeMCZ7agIuTPifQWe-11" value="ParseName" style="rounded=0;whiteSpace=wrap;html=1;sketch=0;strokeColor=#DDA15E;fillColor=#BC6C25;fontColor=#FEFAE0;" vertex="1" parent="1">
          <mxGeometry x="170" y="770" width="120" height="40" as="geometry" />
        </mxCell>
        <mxCell id="gl4KeMCZ7agIuTPifQWe-12" value="" style="edgeStyle=orthogonalEdgeStyle;curved=0;rounded=1;sketch=0;orthogonalLoop=1;jettySize=auto;html=1;strokeColor=#DDA15E;fillColor=#BC6C25;fontColor=#FEFAE0;entryX=0.5;entryY=0;entryDx=0;entryDy=0;" edge="1" parent="1" source="gl4KeMCZ7agIuTPifQWe-11" target="gl4KeMCZ7agIuTPifQWe-13">
          <mxGeometry relative="1" as="geometry">
            <mxPoint x="170" y="750" as="sourcePoint" />
            <mxPoint x="150" y="900" as="targetPoint" />
            <Array as="points">
              <mxPoint x="150" y="790" />
            </Array>
          </mxGeometry>
        </mxCell>
        <mxCell id="gl4KeMCZ7agIuTPifQWe-13" value="dataId&lt;br&gt;dataName" style="shape=parallelogram;perimeter=parallelogramPerimeter;whiteSpace=wrap;html=1;fixedSize=1;rounded=0;sketch=0;strokeColor=#DDA15E;fillColor=#BC6C25;fontColor=#FEFAE0;" vertex="1" parent="1">
          <mxGeometry x="90" y="900" width="120" height="40" as="geometry" />
        </mxCell>
        <mxCell id="gl4KeMCZ7agIuTPifQWe-19" style="edgeStyle=orthogonalEdgeStyle;rounded=0;orthogonalLoop=1;jettySize=auto;html=1;entryX=0.5;entryY=0;entryDx=0;entryDy=0;fillColor=#ffe6cc;strokeColor=#d79b00;" edge="1" parent="1" source="gl4KeMCZ7agIuTPifQWe-14" target="u4cj8cOvkzB2vAJ4iloq-49">
          <mxGeometry relative="1" as="geometry" />
        </mxCell>
        <mxCell id="gl4KeMCZ7agIuTPifQWe-14" value="A" style="ellipse;whiteSpace=wrap;html=1;aspect=fixed;" vertex="1" parent="1">
          <mxGeometry x="60" y="-40" width="80" height="80" as="geometry" />
        </mxCell>
        <mxCell id="gl4KeMCZ7agIuTPifQWe-15" value="A" style="ellipse;whiteSpace=wrap;html=1;aspect=fixed;" vertex="1" parent="1">
          <mxGeometry x="110" y="530" width="80" height="80" as="geometry" />
        </mxCell>
        <mxCell id="gl4KeMCZ7agIuTPifQWe-20" style="edgeStyle=orthogonalEdgeStyle;rounded=0;orthogonalLoop=1;jettySize=auto;html=1;entryX=0.5;entryY=0;entryDx=0;entryDy=0;fillColor=#ffe6cc;strokeColor=#d79b00;" edge="1" parent="1" source="gl4KeMCZ7agIuTPifQWe-16" target="u4cj8cOvkzB2vAJ4iloq-54">
          <mxGeometry relative="1" as="geometry" />
        </mxCell>
        <mxCell id="gl4KeMCZ7agIuTPifQWe-16" value="A" style="ellipse;whiteSpace=wrap;html=1;aspect=fixed;" vertex="1" parent="1">
          <mxGeometry x="380" y="-40" width="80" height="80" as="geometry" />
        </mxCell>
        <mxCell id="gl4KeMCZ7agIuTPifQWe-21" style="edgeStyle=orthogonalEdgeStyle;rounded=0;orthogonalLoop=1;jettySize=auto;html=1;entryX=0.5;entryY=0;entryDx=0;entryDy=0;fillColor=#ffe6cc;strokeColor=#d79b00;" edge="1" parent="1" source="gl4KeMCZ7agIuTPifQWe-18" target="u4cj8cOvkzB2vAJ4iloq-55">
          <mxGeometry relative="1" as="geometry" />
        </mxCell>
        <mxCell id="gl4KeMCZ7agIuTPifQWe-18" value="A" style="ellipse;whiteSpace=wrap;html=1;aspect=fixed;" vertex="1" parent="1">
          <mxGeometry x="700" y="-40" width="80" height="80" as="geometry" />
        </mxCell>
      </root>
    </mxGraphModel>
  </diagram>
</mxfile>
